<svg width="24" height="28" viewBox="0 0 24 28" fill="none" xmlns="http://www.w3.org/2000/svg">
<path d="M7.88583 4.55814H16.1144C16.2053 4.55814 16.2925 4.52384 16.3568 4.46278C16.4211 4.40172 16.4573 4.31891 16.4573 4.23256V0H7.54297V4.23256C7.54297 4.31891 7.57909 4.40172 7.64339 4.46278C7.70769 4.52384 7.79489 4.55814 7.88583 4.55814Z" fill="url(#paint0_linear_344_2179)"/>
<path d="M20.9143 0H18.5143V4.23256C18.5107 4.83595 18.2567 5.41366 17.8074 5.84033C17.3581 6.267 16.7497 6.50821 16.1143 6.51163H7.88571C7.25031 6.50821 6.64195 6.267 6.19264 5.84033C5.74333 5.41366 5.48931 4.83595 5.48571 4.23256V0H3.08571C2.26733 0 1.48247 0.30872 0.903785 0.858245C0.325101 1.40777 0 2.15309 0 2.93023V25.0698C0 25.8469 0.325101 26.5922 0.903785 27.1418C1.48247 27.6913 2.26733 28 3.08571 28H20.9143C21.7327 28 22.5175 27.6913 23.0962 27.1418C23.6749 26.5922 24 25.8469 24 25.0698V2.93023C24 2.15309 23.6749 1.40777 23.0962 0.858245C22.5175 0.30872 21.7327 0 20.9143 0ZM17.4857 22.7907H6.51429C6.24149 22.7907 5.97987 22.6878 5.78698 22.5046C5.59408 22.3214 5.48571 22.073 5.48571 21.814C5.48571 21.5549 5.59408 21.3065 5.78698 21.1233C5.97987 20.9401 6.24149 20.8372 6.51429 20.8372H17.4857C17.7585 20.8372 18.0201 20.9401 18.213 21.1233C18.4059 21.3065 18.5143 21.5549 18.5143 21.814C18.5143 22.073 18.4059 22.3214 18.213 22.5046C18.0201 22.6878 17.7585 22.7907 17.4857 22.7907ZM17.4857 17.5814H6.51429C6.24149 17.5814 5.97987 17.4785 5.78698 17.2953C5.59408 17.1121 5.48571 16.8637 5.48571 16.6047C5.48571 16.3456 5.59408 16.0972 5.78698 15.914C5.97987 15.7308 6.24149 15.6279 6.51429 15.6279H17.4857C17.7585 15.6279 18.0201 15.7308 18.213 15.914C18.4059 16.0972 18.5143 16.3456 18.5143 16.6047C18.5143 16.8637 18.4059 17.1121 18.213 17.2953C18.0201 17.4785 17.7585 17.5814 17.4857 17.5814ZM17.4857 12.3721H6.51429C6.24149 12.3721 5.97987 12.2692 5.78698 12.086C5.59408 11.9028 5.48571 11.6544 5.48571 11.3953C5.48571 11.1363 5.59408 10.8879 5.78698 10.7047C5.97987 10.5215 6.24149 10.4186 6.51429 10.4186H17.4857C17.7585 10.4186 18.0201 10.5215 18.213 10.7047C18.4059 10.8879 18.5143 11.1363 18.5143 11.3953C18.5143 11.6544 18.4059 11.9028 18.213 12.086C18.0201 12.2692 17.7585 12.3721 17.4857 12.3721Z" fill="url(#paint1_linear_344_2179)"/>
<defs>
<linearGradient id="paint0_linear_344_2179" x1="11.3531" y1="0" x2="11.3531" y2="4.55814" gradientUnits="userSpaceOnUse">
<stop stop-color="#56B5B3"/>
<stop offset="1" stop-color="#1F7876"/>
</linearGradient>
<linearGradient id="paint1_linear_344_2179" x1="10.2581" y1="0" x2="10.2581" y2="28" gradientUnits="userSpaceOnUse">
<stop stop-color="#56B5B3"/>
<stop offset="1" stop-color="#1F7876"/>
</linearGradient>
</defs>
</svg>

